<svg width="810" height="420" viewBox="0 0 828 420" xmlns="http://www.w3.org/2000/svg">
  <style>
    svg {
      font-family: -apple-system, BlinkMacSystemFont, "Segoe UI", Helvetica, Arial, sans-serif, "Apple Color Emoji", "Segoe UI Emoji";
    }

    #background {
      fill: rgba(0, 0, 0, 0);
      stroke: rgba(139, 139, 139, 0.15);
      stroke-width: 1px;
    }

    .title {
      fill: rgb(185, 28, 28);
      font-size: 18px;
      font-weight: 600;
    }

    .grid-week {
      stroke: rgb(148, 163, 184);
      stroke-opacity: 0.1;
    }

    .grid-month {
      stroke: rgb(148, 163, 184);
      stroke-opacity: 0.2;
    }

    .grid-h {
      stroke: rgb(148, 163, 184);
      stroke-opacity: 0.15;
      stroke-dasharray: 2px;
    }

    .ct-label {
      fill: rgb(156, 163, 175);
      font-size: 11px;
    }

    .y-axis-labels text {
      fill: rgb(156, 163, 175);
      opacity: 0.7;
      font-size: 10px;
    }

    .ct-line {
      fill: none;
      stroke: rgb(248, 96, 105);
      stroke-opacity: 0.2;
      stroke-width: 2;
      stroke-dasharray: 1;
      stroke-dashoffset: 1;
      animation: dash 5s ease forwards;
    }

    .ct-point-week {
      stroke: rgb(185, 28, 28);
      stroke-opacity: 0.6;
      stroke-width: 4;
      stroke-linecap: round;
    }

    .ct-point-main {
      stroke: rgb(185, 28, 28);
      stroke-opacity: 1;
      stroke-width: 8;
      stroke-linecap: round;
    }

    .ct-point-week,
    .ct-point-main {
      opacity: 0;
      animation: pointFade 0.4s ease forwards;
      animation-delay: 4.8s;
    }

    @keyframes pointFade {
      to {
        opacity: 1;
      }
    }

    @keyframes dash {
      to {
        stroke-dashoffset: 0;
      }
    }

    @keyframes fadeIn {
      from {
        opacity: 0;
      }

      to {
        opacity: 1;
      }
    }
  </style>
  <rect x="2" y="2" width="806" height="416" rx="6" ry="6" id="background" />
  <text x="405" y="32" text-anchor="middle" class="title">
    Contribution Activity (2026)
  </text>

  <!--GRIDS-->
  <g class="grid-h-group">
    <line x1="50" x2="780" y1="80.0" y2="80.0" class="grid-h"/>
<line x1="50" x2="780" y1="134.0" y2="134.0" class="grid-h"/>
<line x1="50" x2="780" y1="188.0" y2="188.0" class="grid-h"/>
<line x1="50" x2="780" y1="242.0" y2="242.0" class="grid-h"/>
<line x1="50" x2="780" y1="296.0" y2="296.0" class="grid-h"/>
<line x1="50" x2="780" y1="350.0" y2="350.0" class="grid-h"/>

  </g>

  <g class="grid-v-group">
    <line x1="50.0" y1="80" x2="50.0" y2="350" class="grid-month"/>
<line x1="65.53191489361703" y1="80" x2="65.53191489361703" y2="350" class="grid-week"/>
<line x1="81.06382978723404" y1="80" x2="81.06382978723404" y2="350" class="grid-week"/>
<line x1="96.59574468085106" y1="80" x2="96.59574468085106" y2="350" class="grid-week"/>
<line x1="112.12765957446808" y1="80" x2="112.12765957446808" y2="350" class="grid-month"/>
<line x1="127.65957446808511" y1="80" x2="127.65957446808511" y2="350" class="grid-week"/>
<line x1="143.1914893617021" y1="80" x2="143.1914893617021" y2="350" class="grid-week"/>
<line x1="158.72340425531914" y1="80" x2="158.72340425531914" y2="350" class="grid-week"/>
<line x1="174.25531914893617" y1="80" x2="174.25531914893617" y2="350" class="grid-month"/>
<line x1="189.7872340425532" y1="80" x2="189.7872340425532" y2="350" class="grid-week"/>
<line x1="205.31914893617022" y1="80" x2="205.31914893617022" y2="350" class="grid-week"/>
<line x1="220.85106382978722" y1="80" x2="220.85106382978722" y2="350" class="grid-week"/>
<line x1="236.38297872340425" y1="80" x2="236.38297872340425" y2="350" class="grid-month"/>
<line x1="251.91489361702128" y1="80" x2="251.91489361702128" y2="350" class="grid-week"/>
<line x1="267.4468085106383" y1="80" x2="267.4468085106383" y2="350" class="grid-week"/>
<line x1="282.97872340425533" y1="80" x2="282.97872340425533" y2="350" class="grid-week"/>
<line x1="298.51063829787233" y1="80" x2="298.51063829787233" y2="350" class="grid-month"/>
<line x1="314.04255319148933" y1="80" x2="314.04255319148933" y2="350" class="grid-week"/>
<line x1="329.5744680851064" y1="80" x2="329.5744680851064" y2="350" class="grid-week"/>
<line x1="345.1063829787234" y1="80" x2="345.1063829787234" y2="350" class="grid-week"/>
<line x1="360.63829787234044" y1="80" x2="360.63829787234044" y2="350" class="grid-month"/>
<line x1="376.17021276595744" y1="80" x2="376.17021276595744" y2="350" class="grid-week"/>
<line x1="391.70212765957444" y1="80" x2="391.70212765957444" y2="350" class="grid-week"/>
<line x1="407.2340425531915" y1="80" x2="407.2340425531915" y2="350" class="grid-week"/>
<line x1="422.7659574468085" y1="80" x2="422.7659574468085" y2="350" class="grid-month"/>
<line x1="438.2978723404255" y1="80" x2="438.2978723404255" y2="350" class="grid-week"/>
<line x1="453.82978723404256" y1="80" x2="453.82978723404256" y2="350" class="grid-week"/>
<line x1="469.36170212765956" y1="80" x2="469.36170212765956" y2="350" class="grid-week"/>
<line x1="484.89361702127655" y1="80" x2="484.89361702127655" y2="350" class="grid-month"/>
<line x1="500.4255319148936" y1="80" x2="500.4255319148936" y2="350" class="grid-week"/>
<line x1="515.9574468085107" y1="80" x2="515.9574468085107" y2="350" class="grid-week"/>
<line x1="531.4893617021277" y1="80" x2="531.4893617021277" y2="350" class="grid-week"/>
<line x1="547.0212765957447" y1="80" x2="547.0212765957447" y2="350" class="grid-month"/>
<line x1="562.5531914893617" y1="80" x2="562.5531914893617" y2="350" class="grid-week"/>
<line x1="578.0851063829787" y1="80" x2="578.0851063829787" y2="350" class="grid-week"/>
<line x1="593.6170212765958" y1="80" x2="593.6170212765958" y2="350" class="grid-week"/>
<line x1="609.1489361702128" y1="80" x2="609.1489361702128" y2="350" class="grid-month"/>
<line x1="624.6808510638298" y1="80" x2="624.6808510638298" y2="350" class="grid-week"/>
<line x1="640.2127659574468" y1="80" x2="640.2127659574468" y2="350" class="grid-week"/>
<line x1="655.7446808510638" y1="80" x2="655.7446808510638" y2="350" class="grid-week"/>
<line x1="671.2765957446809" y1="80" x2="671.2765957446809" y2="350" class="grid-month"/>
<line x1="686.8085106382979" y1="80" x2="686.8085106382979" y2="350" class="grid-week"/>
<line x1="702.3404255319149" y1="80" x2="702.3404255319149" y2="350" class="grid-week"/>
<line x1="717.8723404255319" y1="80" x2="717.8723404255319" y2="350" class="grid-week"/>
<line x1="733.4042553191489" y1="80" x2="733.4042553191489" y2="350" class="grid-month"/>
<line x1="748.9361702127659" y1="80" x2="748.9361702127659" y2="350" class="grid-week"/>
<line x1="764.468085106383" y1="80" x2="764.468085106383" y2="350" class="grid-week"/>
<line x1="780.0" y1="80" x2="780.0" y2="350" class="grid-week"/>

  </g>

  <!-- Y AXIS LABELS -->
  <g class="y-axis-labels">
    <text x="40" y="84.0" text-anchor="end" class="ct-label">12</text>
<text x="40" y="138.0" text-anchor="end" class="ct-label">9</text>
<text x="40" y="192.0" text-anchor="end" class="ct-label">7</text>
<text x="40" y="246.0" text-anchor="end" class="ct-label">4</text>
<text x="40" y="300.0" text-anchor="end" class="ct-label">2</text>
<text x="40" y="354.0" text-anchor="end" class="ct-label">0</text>

  </g>

  <!--MONTH LABEL-->
  <g>
    <text x="81.06382978723404" y="372" text-anchor="middle" class="ct-label">Jan</text>
<text x="143.1914893617021" y="372" text-anchor="middle" class="ct-label">Feb</text>
<text x="205.31914893617022" y="372" text-anchor="middle" class="ct-label">Mar</text>
<text x="267.4468085106383" y="372" text-anchor="middle" class="ct-label">Apr</text>
<text x="329.5744680851064" y="372" text-anchor="middle" class="ct-label">May</text>
<text x="391.70212765957444" y="372" text-anchor="middle" class="ct-label">Jun</text>
<text x="453.82978723404256" y="372" text-anchor="middle" class="ct-label">Jul</text>
<text x="515.9574468085107" y="372" text-anchor="middle" class="ct-label">Aug</text>
<text x="578.0851063829787" y="372" text-anchor="middle" class="ct-label">Sep</text>
<text x="640.2127659574468" y="372" text-anchor="middle" class="ct-label">Oct</text>
<text x="702.3404255319149" y="372" text-anchor="middle" class="ct-label">Nov</text>
<text x="764.468085106383" y="372" text-anchor="middle" class="ct-label">Dec</text>

  </g>

  <!--LINE-->
  <path class="ct-line" pathLength="1" d="M50.0,350.0C57.765957446808514,350.0,57.765957446808514,80.0,65.53191489361703,80.0C73.29787234042553,80.0,73.29787234042553,237.5,81.06382978723404,237.5C88.82978723404256,237.5,88.82978723404256,350.0,96.59574468085106,350.0C104.36170212765957,350.0,104.36170212765957,350.0,112.12765957446808,350.0C119.8936170212766,350.0,119.8936170212766,350.0,127.65957446808511,350.0C135.4255319148936,350.0,135.4255319148936,350.0,143.1914893617021,350.0C150.9574468085106,350.0,150.9574468085106,350.0,158.72340425531914,350.0C166.48936170212767,350.0,166.48936170212767,350.0,174.25531914893617,350.0C182.02127659574467,350.0,182.02127659574467,350.0,189.7872340425532,350.0C197.55319148936172,350.0,197.55319148936172,350.0,205.31914893617022,350.0C213.08510638297872,350.0,213.08510638297872,350.0,220.85106382978722,350.0C228.61702127659572,350.0,228.61702127659572,350.0,236.38297872340425,350.0C244.14893617021278,350.0,244.14893617021278,350.0,251.91489361702128,350.0C259.6808510638298,350.0,259.6808510638298,350.0,267.4468085106383,350.0C275.2127659574468,350.0,275.2127659574468,350.0,282.97872340425533,350.0C290.74468085106383,350.0,290.74468085106383,350.0,298.51063829787233,350.0C306.27659574468083,350.0,306.27659574468083,350.0,314.04255319148933,350.0C321.8085106382979,350.0,321.8085106382979,350.0,329.5744680851064,350.0C337.3404255319149,350.0,337.3404255319149,350.0,345.1063829787234,350.0C352.8723404255319,350.0,352.8723404255319,350.0,360.63829787234044,350.0C368.40425531914894,350.0,368.40425531914894,350.0,376.17021276595744,350.0C383.93617021276594,350.0,383.93617021276594,350.0,391.70212765957444,350.0C399.468085106383,350.0,399.468085106383,350.0,407.2340425531915,350.0C415.0,350.0,415.0,350.0,422.7659574468085,350.0C430.531914893617,350.0,430.531914893617,350.0,438.2978723404255,350.0C446.063829787234,350.0,446.063829787234,350.0,453.82978723404256,350.0C461.59574468085106,350.0,461.59574468085106,350.0,469.36170212765956,350.0C477.12765957446805,350.0,477.12765957446805,350.0,484.89361702127655,350.0C492.6595744680851,350.0,492.6595744680851,350.0,500.4255319148936,350.0C508.1914893617021,350.0,508.1914893617021,350.0,515.9574468085107,350.0C523.7234042553191,350.0,523.7234042553191,350.0,531.4893617021277,350.0C539.2553191489362,350.0,539.2553191489362,350.0,547.0212765957447,350.0C554.7872340425531,350.0,554.7872340425531,350.0,562.5531914893617,350.0C570.3191489361702,350.0,570.3191489361702,350.0,578.0851063829787,350.0C585.8510638297872,350.0,585.8510638297872,350.0,593.6170212765958,350.0C601.3829787234042,350.0,601.3829787234042,350.0,609.1489361702128,350.0C616.9148936170213,350.0,616.9148936170213,350.0,624.6808510638298,350.0C632.4468085106382,350.0,632.4468085106382,350.0,640.2127659574468,350.0C647.9787234042553,350.0,647.9787234042553,350.0,655.7446808510638,350.0C663.5106382978723,350.0,663.5106382978723,350.0,671.2765957446809,350.0C679.0425531914893,350.0,679.0425531914893,350.0,686.8085106382979,350.0C694.5744680851064,350.0,694.5744680851064,350.0,702.3404255319149,350.0C710.1063829787233,350.0,710.1063829787233,350.0,717.8723404255319,350.0C725.6382978723404,350.0,725.6382978723404,350.0,733.4042553191489,350.0C741.1702127659573,350.0,741.1702127659573,350.0,748.9361702127659,350.0C756.7021276595744,350.0,756.7021276595744,350.0,764.468085106383,350.0C772.2340425531916,350.0,772.2340425531916,350.0,780.0,350.0" />

  <!-- WEEK DOTS -->
  <g>
    <line x1="50.0" y1="350.0" x2="50.01" y2="350.0" class="ct-point-week"/>
<line x1="65.53191489361703" y1="80.0" x2="65.54191489361703" y2="80.0" class="ct-point-week"/>
<line x1="81.06382978723404" y1="237.5" x2="81.07382978723405" y2="237.5" class="ct-point-week"/>
<line x1="96.59574468085106" y1="350.0" x2="96.60574468085106" y2="350.0" class="ct-point-week"/>
<line x1="112.12765957446808" y1="350.0" x2="112.13765957446809" y2="350.0" class="ct-point-week"/>
<line x1="127.65957446808511" y1="350.0" x2="127.66957446808512" y2="350.0" class="ct-point-week"/>
<line x1="143.1914893617021" y1="350.0" x2="143.2014893617021" y2="350.0" class="ct-point-week"/>
<line x1="158.72340425531914" y1="350.0" x2="158.73340425531913" y2="350.0" class="ct-point-week"/>
<line x1="174.25531914893617" y1="350.0" x2="174.26531914893616" y2="350.0" class="ct-point-week"/>
<line x1="189.7872340425532" y1="350.0" x2="189.79723404255319" y2="350.0" class="ct-point-week"/>
<line x1="205.31914893617022" y1="350.0" x2="205.3291489361702" y2="350.0" class="ct-point-week"/>
<line x1="220.85106382978722" y1="350.0" x2="220.8610638297872" y2="350.0" class="ct-point-week"/>
<line x1="236.38297872340425" y1="350.0" x2="236.39297872340424" y2="350.0" class="ct-point-week"/>
<line x1="251.91489361702128" y1="350.0" x2="251.92489361702127" y2="350.0" class="ct-point-week"/>
<line x1="267.4468085106383" y1="350.0" x2="267.45680851063827" y2="350.0" class="ct-point-week"/>
<line x1="282.97872340425533" y1="350.0" x2="282.9887234042553" y2="350.0" class="ct-point-week"/>
<line x1="298.51063829787233" y1="350.0" x2="298.5206382978723" y2="350.0" class="ct-point-week"/>
<line x1="314.04255319148933" y1="350.0" x2="314.0525531914893" y2="350.0" class="ct-point-week"/>
<line x1="329.5744680851064" y1="350.0" x2="329.5844680851064" y2="350.0" class="ct-point-week"/>
<line x1="345.1063829787234" y1="350.0" x2="345.1163829787234" y2="350.0" class="ct-point-week"/>
<line x1="360.63829787234044" y1="350.0" x2="360.64829787234044" y2="350.0" class="ct-point-week"/>
<line x1="376.17021276595744" y1="350.0" x2="376.18021276595744" y2="350.0" class="ct-point-week"/>
<line x1="391.70212765957444" y1="350.0" x2="391.71212765957443" y2="350.0" class="ct-point-week"/>
<line x1="407.2340425531915" y1="350.0" x2="407.2440425531915" y2="350.0" class="ct-point-week"/>
<line x1="422.7659574468085" y1="350.0" x2="422.7759574468085" y2="350.0" class="ct-point-week"/>
<line x1="438.2978723404255" y1="350.0" x2="438.3078723404255" y2="350.0" class="ct-point-week"/>
<line x1="453.82978723404256" y1="350.0" x2="453.83978723404255" y2="350.0" class="ct-point-week"/>
<line x1="469.36170212765956" y1="350.0" x2="469.37170212765955" y2="350.0" class="ct-point-week"/>
<line x1="484.89361702127655" y1="350.0" x2="484.90361702127655" y2="350.0" class="ct-point-week"/>
<line x1="500.4255319148936" y1="350.0" x2="500.4355319148936" y2="350.0" class="ct-point-week"/>
<line x1="515.9574468085107" y1="350.0" x2="515.9674468085107" y2="350.0" class="ct-point-week"/>
<line x1="531.4893617021277" y1="350.0" x2="531.4993617021277" y2="350.0" class="ct-point-week"/>
<line x1="547.0212765957447" y1="350.0" x2="547.0312765957447" y2="350.0" class="ct-point-week"/>
<line x1="562.5531914893617" y1="350.0" x2="562.5631914893617" y2="350.0" class="ct-point-week"/>
<line x1="578.0851063829787" y1="350.0" x2="578.0951063829787" y2="350.0" class="ct-point-week"/>
<line x1="593.6170212765958" y1="350.0" x2="593.6270212765958" y2="350.0" class="ct-point-week"/>
<line x1="609.1489361702128" y1="350.0" x2="609.1589361702128" y2="350.0" class="ct-point-week"/>
<line x1="624.6808510638298" y1="350.0" x2="624.6908510638298" y2="350.0" class="ct-point-week"/>
<line x1="640.2127659574468" y1="350.0" x2="640.2227659574468" y2="350.0" class="ct-point-week"/>
<line x1="655.7446808510638" y1="350.0" x2="655.7546808510638" y2="350.0" class="ct-point-week"/>
<line x1="671.2765957446809" y1="350.0" x2="671.2865957446809" y2="350.0" class="ct-point-week"/>
<line x1="686.8085106382979" y1="350.0" x2="686.8185106382979" y2="350.0" class="ct-point-week"/>
<line x1="702.3404255319149" y1="350.0" x2="702.3504255319149" y2="350.0" class="ct-point-week"/>
<line x1="717.8723404255319" y1="350.0" x2="717.8823404255319" y2="350.0" class="ct-point-week"/>
<line x1="733.4042553191489" y1="350.0" x2="733.4142553191489" y2="350.0" class="ct-point-week"/>
<line x1="748.9361702127659" y1="350.0" x2="748.9461702127659" y2="350.0" class="ct-point-week"/>
<line x1="764.468085106383" y1="350.0" x2="764.478085106383" y2="350.0" class="ct-point-week"/>
<line x1="780.0" y1="350.0" x2="780.01" y2="350.0" class="ct-point-week"/>

  </g>
  <!-- MAIN DOTS -->
  <g>
    <line x1="65.53191489361703" y1="80.0" x2="65.54191489361703" y2="80.0" class="ct-point-main"/>
<line x1="81.06382978723404" y1="237.5" x2="81.07382978723405" y2="237.5" class="ct-point-main"/>

  </g>
</svg>