<svg width="810" height="420" viewBox="0 0 810 420" xmlns="http://www.w3.org/2000/svg">
  <style>
    svg {
      font-family: -apple-system, BlinkMacSystemFont, "Segoe UI", Helvetica, Arial, sans-serif, "Apple Color Emoji", "Segoe UI Emoji";
    }

    #background {
      fill: rgba(0, 0, 0, 0);
      stroke: rgba(139, 139, 139, 0.15);
      stroke-width: 1px;
    }

    .title {
      fill: rgb(185, 28, 28);
      font-size: 18px;
      font-weight: 600;
    }

    .grid-week {
      stroke: rgb(148, 163, 184);
      stroke-opacity: 0.1;
    }

    .grid-month {
      stroke: rgb(148, 163, 184);
      stroke-opacity: 0.2;
    }

    .grid-h {
      stroke: rgb(148, 163, 184);
      stroke-opacity: 0.15;
      stroke-dasharray: 2px;
    }

    .ct-label {
      fill: rgb(156, 163, 175);
      font-size: 11px;
    }

    .y-axis-labels text {
      fill: rgb(156, 163, 175);
      opacity: 0.7;
      font-size: 10px;
    }

    .ct-line {
      fill: none;
      stroke: rgb(248, 96, 105);
      stroke-opacity: 0.2;
      stroke-width: 2;
      stroke-dasharray: 1;
      stroke-dashoffset: 1;
      animation: dash 5s ease forwards;
    }

    .ct-point-week {
      stroke: rgb(185, 28, 28);
      stroke-opacity: 0.6;
      stroke-width: 4;
      stroke-linecap: round;
    }

    .ct-point-main {
      stroke: rgb(185, 28, 28);
      stroke-opacity: 1;
      stroke-width: 8;
      stroke-linecap: round;
    }

    .ct-point-week,
    .ct-point-main {
      opacity: 0;
      animation: pointFade 0.4s ease forwards;
      animation-delay: 4.8s;
    }

    @keyframes pointFade {
      to {
        opacity: 1;
      }
    }

    @keyframes dash {
      to {
        stroke-dashoffset: 0;
      }
    }

    @keyframes fadeIn {
      from {
        opacity: 0;
      }

      to {
        opacity: 1;
      }
    }
  </style>
  <rect x="2" y="2" width="806" height="416" rx="6" ry="6" id="background" />
  <text x="405" y="32" text-anchor="middle" class="title">
    Contribution Activity (2026)
  </text>

  <!--GRIDS-->
  <g class="grid-h-group">
    <line x1="40" x2="780" y1="80.0" y2="80.0" class="grid-h"/>
<line x1="40" x2="780" y1="134.0" y2="134.0" class="grid-h"/>
<line x1="40" x2="780" y1="188.0" y2="188.0" class="grid-h"/>
<line x1="40" x2="780" y1="242.0" y2="242.0" class="grid-h"/>
<line x1="40" x2="780" y1="296.0" y2="296.0" class="grid-h"/>
<line x1="40" x2="780" y1="350.0" y2="350.0" class="grid-h"/>

  </g>

  <g class="grid-v-group">
    <line x1="40.0" y1="80" x2="40.0" y2="350" class="grid-month"/>
<line x1="55.74468085106383" y1="80" x2="55.74468085106383" y2="350" class="grid-week"/>
<line x1="71.48936170212767" y1="80" x2="71.48936170212767" y2="350" class="grid-week"/>
<line x1="87.23404255319149" y1="80" x2="87.23404255319149" y2="350" class="grid-week"/>
<line x1="102.97872340425532" y1="80" x2="102.97872340425532" y2="350" class="grid-month"/>
<line x1="118.72340425531915" y1="80" x2="118.72340425531915" y2="350" class="grid-week"/>
<line x1="134.46808510638297" y1="80" x2="134.46808510638297" y2="350" class="grid-week"/>
<line x1="150.2127659574468" y1="80" x2="150.2127659574468" y2="350" class="grid-week"/>
<line x1="165.95744680851064" y1="80" x2="165.95744680851064" y2="350" class="grid-month"/>
<line x1="181.70212765957447" y1="80" x2="181.70212765957447" y2="350" class="grid-week"/>
<line x1="197.4468085106383" y1="80" x2="197.4468085106383" y2="350" class="grid-week"/>
<line x1="213.19148936170214" y1="80" x2="213.19148936170214" y2="350" class="grid-week"/>
<line x1="228.93617021276594" y1="80" x2="228.93617021276594" y2="350" class="grid-month"/>
<line x1="244.68085106382978" y1="80" x2="244.68085106382978" y2="350" class="grid-week"/>
<line x1="260.4255319148936" y1="80" x2="260.4255319148936" y2="350" class="grid-week"/>
<line x1="276.17021276595744" y1="80" x2="276.17021276595744" y2="350" class="grid-week"/>
<line x1="291.9148936170213" y1="80" x2="291.9148936170213" y2="350" class="grid-month"/>
<line x1="307.6595744680851" y1="80" x2="307.6595744680851" y2="350" class="grid-week"/>
<line x1="323.40425531914894" y1="80" x2="323.40425531914894" y2="350" class="grid-week"/>
<line x1="339.1489361702128" y1="80" x2="339.1489361702128" y2="350" class="grid-week"/>
<line x1="354.8936170212766" y1="80" x2="354.8936170212766" y2="350" class="grid-month"/>
<line x1="370.63829787234044" y1="80" x2="370.63829787234044" y2="350" class="grid-week"/>
<line x1="386.3829787234043" y1="80" x2="386.3829787234043" y2="350" class="grid-week"/>
<line x1="402.1276595744681" y1="80" x2="402.1276595744681" y2="350" class="grid-week"/>
<line x1="417.8723404255319" y1="80" x2="417.8723404255319" y2="350" class="grid-month"/>
<line x1="433.6170212765957" y1="80" x2="433.6170212765957" y2="350" class="grid-week"/>
<line x1="449.36170212765956" y1="80" x2="449.36170212765956" y2="350" class="grid-week"/>
<line x1="465.1063829787234" y1="80" x2="465.1063829787234" y2="350" class="grid-week"/>
<line x1="480.8510638297872" y1="80" x2="480.8510638297872" y2="350" class="grid-month"/>
<line x1="496.59574468085106" y1="80" x2="496.59574468085106" y2="350" class="grid-week"/>
<line x1="512.3404255319149" y1="80" x2="512.3404255319149" y2="350" class="grid-week"/>
<line x1="528.0851063829787" y1="80" x2="528.0851063829787" y2="350" class="grid-week"/>
<line x1="543.8297872340426" y1="80" x2="543.8297872340426" y2="350" class="grid-month"/>
<line x1="559.5744680851063" y1="80" x2="559.5744680851063" y2="350" class="grid-week"/>
<line x1="575.3191489361702" y1="80" x2="575.3191489361702" y2="350" class="grid-week"/>
<line x1="591.063829787234" y1="80" x2="591.063829787234" y2="350" class="grid-week"/>
<line x1="606.8085106382979" y1="80" x2="606.8085106382979" y2="350" class="grid-month"/>
<line x1="622.5531914893617" y1="80" x2="622.5531914893617" y2="350" class="grid-week"/>
<line x1="638.2978723404256" y1="80" x2="638.2978723404256" y2="350" class="grid-week"/>
<line x1="654.0425531914893" y1="80" x2="654.0425531914893" y2="350" class="grid-week"/>
<line x1="669.7872340425532" y1="80" x2="669.7872340425532" y2="350" class="grid-month"/>
<line x1="685.531914893617" y1="80" x2="685.531914893617" y2="350" class="grid-week"/>
<line x1="701.2765957446809" y1="80" x2="701.2765957446809" y2="350" class="grid-week"/>
<line x1="717.0212765957447" y1="80" x2="717.0212765957447" y2="350" class="grid-week"/>
<line x1="732.7659574468086" y1="80" x2="732.7659574468086" y2="350" class="grid-month"/>
<line x1="748.5106382978723" y1="80" x2="748.5106382978723" y2="350" class="grid-week"/>
<line x1="764.2553191489362" y1="80" x2="764.2553191489362" y2="350" class="grid-week"/>
<line x1="780.0" y1="80" x2="780.0" y2="350" class="grid-week"/>

  </g>

  <!-- Y AXIS LABELS -->
  <g class="y-axis-labels">
    <text x="30" y="84.0" text-anchor="end" class="ct-label">24</text>
<text x="30" y="138.0" text-anchor="end" class="ct-label">19</text>
<text x="30" y="192.0" text-anchor="end" class="ct-label">14</text>
<text x="30" y="246.0" text-anchor="end" class="ct-label">9</text>
<text x="30" y="300.0" text-anchor="end" class="ct-label">4</text>
<text x="30" y="354.0" text-anchor="end" class="ct-label">0</text>

  </g>

  <!--MONTH LABEL-->
  <g>
    <text x="71.48936170212767" y="372" text-anchor="middle" class="ct-label">Jan</text>
<text x="134.46808510638297" y="372" text-anchor="middle" class="ct-label">Feb</text>
<text x="197.4468085106383" y="372" text-anchor="middle" class="ct-label">Mar</text>
<text x="260.4255319148936" y="372" text-anchor="middle" class="ct-label">Apr</text>
<text x="323.40425531914894" y="372" text-anchor="middle" class="ct-label">May</text>
<text x="386.3829787234043" y="372" text-anchor="middle" class="ct-label">Jun</text>
<text x="449.36170212765956" y="372" text-anchor="middle" class="ct-label">Jul</text>
<text x="512.3404255319149" y="372" text-anchor="middle" class="ct-label">Aug</text>
<text x="575.3191489361702" y="372" text-anchor="middle" class="ct-label">Sep</text>
<text x="638.2978723404256" y="372" text-anchor="middle" class="ct-label">Oct</text>
<text x="701.2765957446809" y="372" text-anchor="middle" class="ct-label">Nov</text>
<text x="764.2553191489362" y="372" text-anchor="middle" class="ct-label">Dec</text>

  </g>

  <!--LINE-->
  <path class="ct-line" pathLength="1" d="M40.0,350.0C47.87234042553192,350.0,47.87234042553192,80.0,55.74468085106383,80.0C63.61702127659575,80.0,63.61702127659575,350.0,71.48936170212767,350.0" />

  <!-- WEEK DOTS -->
  <g>
    <line x1="40.0" y1="350.0" x2="40.01" y2="350.0" class="ct-point-week"/>
<line x1="55.74468085106383" y1="80.0" x2="55.75468085106383" y2="80.0" class="ct-point-week"/>
<line x1="71.48936170212767" y1="350.0" x2="71.49936170212767" y2="350.0" class="ct-point-week"/>

  </g>
  <!-- MAIN DOTS -->
  <g>
    <line x1="55.74468085106383" y1="80.0" x2="55.75468085106383" y2="80.0" class="ct-point-main"/>

  </g>
</svg>