<svg width="830" height="420" viewBox="0 0 828 420" xmlns="http://www.w3.org/2000/svg">
  <style>
    svg {
      font-family: -apple-system, BlinkMacSystemFont, "Segoe UI", Helvetica, Arial, sans-serif, "Apple Color Emoji", "Segoe UI Emoji";
    }

    #background {
      fill: rgba(0, 0, 0, 0);
      stroke: rgba(139, 139, 139, 0.15);
      stroke-width: 1px;
    }

    .title {
      fill: rgb(185, 28, 28);
      font-size: 18px;
      font-weight: 600;
    }

    .grid-week {
      stroke: rgb(148, 163, 184);
      stroke-opacity: 0.1;
    }

    .grid-month {
      stroke: rgb(148, 163, 184);
      stroke-opacity: 0.2;
    }

    .grid-h {
      stroke: rgb(148, 163, 184);
      stroke-opacity: 0.15;
      stroke-dasharray: 2px;
    }

    .ct-label {
      fill: rgb(156, 163, 175);
      font-size: 11px;
    }

    .y-axis-labels text {
      fill: rgb(156, 163, 175);
      opacity: 0.7;
      font-size: 10px;
    }

    .ct-line {
      fill: none;
      stroke: rgb(248, 96, 105);
      stroke-opacity: 0.2;
      stroke-width: 2;
      stroke-dasharray: 1;
      stroke-dashoffset: 1;
      animation: dash 5s ease forwards;
    }

    .ct-point-week {
      stroke: rgb(185, 28, 28);
      stroke-opacity: 0.6;
      stroke-width: 4;
      stroke-linecap: round;
    }

    .ct-point-main {
      stroke: rgb(185, 28, 28);
      stroke-opacity: 1;
      stroke-width: 8;
      stroke-linecap: round;
    }

    .ct-point-week,
    .ct-point-main {
      opacity: 0;
      animation: pointFade 0.4s ease forwards;
      animation-delay: 4.8s;
    }

    @keyframes pointFade {
      to {
        opacity: 1;
      }
    }

    @keyframes dash {
      to {
        stroke-dashoffset: 0;
      }
    }

    @keyframes fadeIn {
      from {
        opacity: 0;
      }

      to {
        opacity: 1;
      }
    }
  </style>
  <rect x="2" y="2" width="826" height="416" rx="6" ry="6" id="background" />
  <text x="414" y="32" text-anchor="middle" class="title">
    Contribution Activity (2027)
  </text>

  <!--GRIDS-->
  <g class="grid-h-group">
    <line x1="60" x2="800" y1="80.0" y2="80.0" class="grid-h"/>
<line x1="60" x2="800" y1="134.0" y2="134.0" class="grid-h"/>
<line x1="60" x2="800" y1="188.0" y2="188.0" class="grid-h"/>
<line x1="60" x2="800" y1="242.0" y2="242.0" class="grid-h"/>
<line x1="60" x2="800" y1="296.0" y2="296.0" class="grid-h"/>
<line x1="60" x2="800" y1="350.0" y2="350.0" class="grid-h"/>

  </g>

  <g class="grid-v-group">
    <line x1="60.0" y1="80" x2="60.0" y2="350" class="grid-month"/>
<line x1="75.74468085106383" y1="80" x2="75.74468085106383" y2="350" class="grid-week"/>
<line x1="91.48936170212767" y1="80" x2="91.48936170212767" y2="350" class="grid-week"/>
<line x1="107.23404255319149" y1="80" x2="107.23404255319149" y2="350" class="grid-week"/>
<line x1="122.97872340425532" y1="80" x2="122.97872340425532" y2="350" class="grid-month"/>
<line x1="138.72340425531917" y1="80" x2="138.72340425531917" y2="350" class="grid-week"/>
<line x1="154.46808510638297" y1="80" x2="154.46808510638297" y2="350" class="grid-week"/>
<line x1="170.2127659574468" y1="80" x2="170.2127659574468" y2="350" class="grid-week"/>
<line x1="185.95744680851064" y1="80" x2="185.95744680851064" y2="350" class="grid-month"/>
<line x1="201.70212765957447" y1="80" x2="201.70212765957447" y2="350" class="grid-week"/>
<line x1="217.4468085106383" y1="80" x2="217.4468085106383" y2="350" class="grid-week"/>
<line x1="233.19148936170214" y1="80" x2="233.19148936170214" y2="350" class="grid-week"/>
<line x1="248.93617021276594" y1="80" x2="248.93617021276594" y2="350" class="grid-month"/>
<line x1="264.6808510638298" y1="80" x2="264.6808510638298" y2="350" class="grid-week"/>
<line x1="280.4255319148936" y1="80" x2="280.4255319148936" y2="350" class="grid-week"/>
<line x1="296.17021276595744" y1="80" x2="296.17021276595744" y2="350" class="grid-week"/>
<line x1="311.9148936170213" y1="80" x2="311.9148936170213" y2="350" class="grid-month"/>
<line x1="327.6595744680851" y1="80" x2="327.6595744680851" y2="350" class="grid-week"/>
<line x1="343.40425531914894" y1="80" x2="343.40425531914894" y2="350" class="grid-week"/>
<line x1="359.1489361702128" y1="80" x2="359.1489361702128" y2="350" class="grid-week"/>
<line x1="374.8936170212766" y1="80" x2="374.8936170212766" y2="350" class="grid-month"/>
<line x1="390.63829787234044" y1="80" x2="390.63829787234044" y2="350" class="grid-week"/>
<line x1="406.3829787234043" y1="80" x2="406.3829787234043" y2="350" class="grid-week"/>
<line x1="422.1276595744681" y1="80" x2="422.1276595744681" y2="350" class="grid-week"/>
<line x1="437.8723404255319" y1="80" x2="437.8723404255319" y2="350" class="grid-month"/>
<line x1="453.6170212765957" y1="80" x2="453.6170212765957" y2="350" class="grid-week"/>
<line x1="469.36170212765956" y1="80" x2="469.36170212765956" y2="350" class="grid-week"/>
<line x1="485.1063829787234" y1="80" x2="485.1063829787234" y2="350" class="grid-week"/>
<line x1="500.8510638297872" y1="80" x2="500.8510638297872" y2="350" class="grid-month"/>
<line x1="516.5957446808511" y1="80" x2="516.5957446808511" y2="350" class="grid-week"/>
<line x1="532.3404255319149" y1="80" x2="532.3404255319149" y2="350" class="grid-week"/>
<line x1="548.0851063829787" y1="80" x2="548.0851063829787" y2="350" class="grid-week"/>
<line x1="563.8297872340426" y1="80" x2="563.8297872340426" y2="350" class="grid-month"/>
<line x1="579.5744680851063" y1="80" x2="579.5744680851063" y2="350" class="grid-week"/>
<line x1="595.3191489361702" y1="80" x2="595.3191489361702" y2="350" class="grid-week"/>
<line x1="611.063829787234" y1="80" x2="611.063829787234" y2="350" class="grid-week"/>
<line x1="626.8085106382979" y1="80" x2="626.8085106382979" y2="350" class="grid-month"/>
<line x1="642.5531914893617" y1="80" x2="642.5531914893617" y2="350" class="grid-week"/>
<line x1="658.2978723404256" y1="80" x2="658.2978723404256" y2="350" class="grid-week"/>
<line x1="674.0425531914893" y1="80" x2="674.0425531914893" y2="350" class="grid-week"/>
<line x1="689.7872340425532" y1="80" x2="689.7872340425532" y2="350" class="grid-month"/>
<line x1="705.531914893617" y1="80" x2="705.531914893617" y2="350" class="grid-week"/>
<line x1="721.2765957446809" y1="80" x2="721.2765957446809" y2="350" class="grid-week"/>
<line x1="737.0212765957447" y1="80" x2="737.0212765957447" y2="350" class="grid-week"/>
<line x1="752.7659574468086" y1="80" x2="752.7659574468086" y2="350" class="grid-month"/>
<line x1="768.5106382978723" y1="80" x2="768.5106382978723" y2="350" class="grid-week"/>
<line x1="784.2553191489362" y1="80" x2="784.2553191489362" y2="350" class="grid-week"/>
<line x1="800.0" y1="80" x2="800.0" y2="350" class="grid-week"/>

  </g>

  <!-- Y AXIS LABELS -->
  <g class="y-axis-labels">
    <text x="50" y="84.0" text-anchor="end" class="ct-label">12</text>
<text x="50" y="138.0" text-anchor="end" class="ct-label">9</text>
<text x="50" y="192.0" text-anchor="end" class="ct-label">7</text>
<text x="50" y="246.0" text-anchor="end" class="ct-label">4</text>
<text x="50" y="300.0" text-anchor="end" class="ct-label">2</text>
<text x="50" y="354.0" text-anchor="end" class="ct-label">0</text>

  </g>

  <!--MONTH LABEL-->
  <g>
    <text x="91.48936170212767" y="372" text-anchor="middle" class="ct-label">Jan</text>
<text x="154.46808510638297" y="372" text-anchor="middle" class="ct-label">Feb</text>
<text x="217.4468085106383" y="372" text-anchor="middle" class="ct-label">Mar</text>
<text x="280.4255319148936" y="372" text-anchor="middle" class="ct-label">Apr</text>
<text x="343.40425531914894" y="372" text-anchor="middle" class="ct-label">May</text>
<text x="406.3829787234043" y="372" text-anchor="middle" class="ct-label">Jun</text>
<text x="469.36170212765956" y="372" text-anchor="middle" class="ct-label">Jul</text>
<text x="532.3404255319149" y="372" text-anchor="middle" class="ct-label">Aug</text>
<text x="595.3191489361702" y="372" text-anchor="middle" class="ct-label">Sep</text>
<text x="658.2978723404256" y="372" text-anchor="middle" class="ct-label">Oct</text>
<text x="721.2765957446809" y="372" text-anchor="middle" class="ct-label">Nov</text>
<text x="784.2553191489362" y="372" text-anchor="middle" class="ct-label">Dec</text>

  </g>

  <!--LINE-->
  <path class="ct-line" pathLength="1" d="M60.0,350.0C67.87234042553192,350.0,67.87234042553192,80.0,75.74468085106383,80.0C83.61702127659575,80.0,83.61702127659575,350.0,91.48936170212767,350.0C99.36170212765958,350.0,99.36170212765958,350.0,107.23404255319149,350.0" />

  <!-- WEEK DOTS -->
  <g>
    <line x1="60.0" y1="350.0" x2="60.01" y2="350.0" class="ct-point-week"/>
<line x1="75.74468085106383" y1="80.0" x2="75.75468085106384" y2="80.0" class="ct-point-week"/>
<line x1="91.48936170212767" y1="350.0" x2="91.49936170212767" y2="350.0" class="ct-point-week"/>
<line x1="107.23404255319149" y1="350.0" x2="107.24404255319149" y2="350.0" class="ct-point-week"/>

  </g>
  <!-- MAIN DOTS -->
  <g>
    <line x1="75.74468085106383" y1="80.0" x2="75.75468085106384" y2="80.0" class="ct-point-main"/>

  </g>
</svg>