<svg width="810" height="420" viewBox="0 0 810 420" xmlns="http://www.w3.org/2000/svg">
  <style>
    svg {
      font-family: -apple-system, BlinkMacSystemFont, "Segoe UI", Helvetica, Arial, sans-serif, "Apple Color Emoji", "Segoe UI Emoji";
    }

    #background {
      fill: rgba(0, 0, 0, 0);
      stroke: rgba(139, 139, 139, 0.15);
      stroke-width: 1px;
    }

    .title {
      fill: rgb(185, 28, 28);
      font-size: 18px;
      font-weight: 600;
    }

    .grid-week {
      stroke: rgb(148, 163, 184);
      stroke-opacity: 0.1;
    }

    .grid-month {
      stroke: rgb(148, 163, 184);
      stroke-opacity: 0.2;
    }

    .grid-h {
      stroke: rgb(148, 163, 184);
      stroke-opacity: 0.15;
      stroke-dasharray: 2px;
    }

    .ct-label {
      fill: rgb(156, 163, 175);
      font-size: 11px;
    }

    .y-axis-labels text {
      fill: rgb(156, 163, 175);
      opacity: 0.7;
      font-size: 10px;
    }

    .ct-line {
      fill: none;
      stroke: rgb(248, 96, 105);
      stroke-opacity: 0.2;
      stroke-width: 2;
      stroke-dasharray: 1;
      stroke-dashoffset: 1;
      animation: dash 5s ease forwards;
    }

    .ct-point-week {
      stroke: rgb(185, 28, 28);
      stroke-opacity: 0.6;
      stroke-width: 4;
      stroke-linecap: round;
    }

    .ct-point-main {
      stroke: rgb(185, 28, 28);
      stroke-opacity: 1;
      stroke-width: 8;
      stroke-linecap: round;
    }

    .ct-point-week,
    .ct-point-main {
      opacity: 0;
      animation: pointFade 0.4s ease forwards;
      animation-delay: 4.8s;
    }

    @keyframes pointFade {
      to {
        opacity: 1;
      }
    }

    @keyframes dash {
      to {
        stroke-dashoffset: 0;
      }
    }

    @keyframes fadeIn {
      from {
        opacity: 0;
      }

      to {
        opacity: 1;
      }
    }
  </style>
  <rect x="2" y="2" width="806" height="416" rx="6" ry="6" id="background" />
  <text x="405" y="32" text-anchor="middle" class="title">
    Contribution Activity (2026)
  </text>

  <!--GRIDS-->
  <g class="grid-h-group">
    <line x1="30" x2="780" y1="80.0" y2="80.0" class="grid-h"/>
<line x1="30" x2="780" y1="134.0" y2="134.0" class="grid-h"/>
<line x1="30" x2="780" y1="188.0" y2="188.0" class="grid-h"/>
<line x1="30" x2="780" y1="242.0" y2="242.0" class="grid-h"/>
<line x1="30" x2="780" y1="296.0" y2="296.0" class="grid-h"/>
<line x1="30" x2="780" y1="350.0" y2="350.0" class="grid-h"/>

  </g>

  <g class="grid-v-group">
    <line x1="30.0" y1="80" x2="30.0" y2="350" class="grid-month"/>
<line x1="45.95744680851064" y1="80" x2="45.95744680851064" y2="350" class="grid-week"/>
<line x1="61.91489361702128" y1="80" x2="61.91489361702128" y2="350" class="grid-week"/>
<line x1="77.87234042553192" y1="80" x2="77.87234042553192" y2="350" class="grid-week"/>
<line x1="93.82978723404256" y1="80" x2="93.82978723404256" y2="350" class="grid-month"/>
<line x1="109.7872340425532" y1="80" x2="109.7872340425532" y2="350" class="grid-week"/>
<line x1="125.74468085106383" y1="80" x2="125.74468085106383" y2="350" class="grid-week"/>
<line x1="141.70212765957447" y1="80" x2="141.70212765957447" y2="350" class="grid-week"/>
<line x1="157.6595744680851" y1="80" x2="157.6595744680851" y2="350" class="grid-month"/>
<line x1="173.61702127659575" y1="80" x2="173.61702127659575" y2="350" class="grid-week"/>
<line x1="189.5744680851064" y1="80" x2="189.5744680851064" y2="350" class="grid-week"/>
<line x1="205.53191489361703" y1="80" x2="205.53191489361703" y2="350" class="grid-week"/>
<line x1="221.48936170212767" y1="80" x2="221.48936170212767" y2="350" class="grid-month"/>
<line x1="237.4468085106383" y1="80" x2="237.4468085106383" y2="350" class="grid-week"/>
<line x1="253.40425531914894" y1="80" x2="253.40425531914894" y2="350" class="grid-week"/>
<line x1="269.36170212765956" y1="80" x2="269.36170212765956" y2="350" class="grid-week"/>
<line x1="285.3191489361702" y1="80" x2="285.3191489361702" y2="350" class="grid-month"/>
<line x1="301.2765957446809" y1="80" x2="301.2765957446809" y2="350" class="grid-week"/>
<line x1="317.2340425531915" y1="80" x2="317.2340425531915" y2="350" class="grid-week"/>
<line x1="333.1914893617021" y1="80" x2="333.1914893617021" y2="350" class="grid-week"/>
<line x1="349.1489361702128" y1="80" x2="349.1489361702128" y2="350" class="grid-month"/>
<line x1="365.10638297872345" y1="80" x2="365.10638297872345" y2="350" class="grid-week"/>
<line x1="381.06382978723406" y1="80" x2="381.06382978723406" y2="350" class="grid-week"/>
<line x1="397.02127659574467" y1="80" x2="397.02127659574467" y2="350" class="grid-week"/>
<line x1="412.97872340425533" y1="80" x2="412.97872340425533" y2="350" class="grid-month"/>
<line x1="428.936170212766" y1="80" x2="428.936170212766" y2="350" class="grid-week"/>
<line x1="444.8936170212766" y1="80" x2="444.8936170212766" y2="350" class="grid-week"/>
<line x1="460.8510638297872" y1="80" x2="460.8510638297872" y2="350" class="grid-week"/>
<line x1="476.8085106382979" y1="80" x2="476.8085106382979" y2="350" class="grid-month"/>
<line x1="492.76595744680856" y1="80" x2="492.76595744680856" y2="350" class="grid-week"/>
<line x1="508.72340425531917" y1="80" x2="508.72340425531917" y2="350" class="grid-week"/>
<line x1="524.6808510638298" y1="80" x2="524.6808510638298" y2="350" class="grid-week"/>
<line x1="540.6382978723404" y1="80" x2="540.6382978723404" y2="350" class="grid-month"/>
<line x1="556.5957446808511" y1="80" x2="556.5957446808511" y2="350" class="grid-week"/>
<line x1="572.5531914893618" y1="80" x2="572.5531914893618" y2="350" class="grid-week"/>
<line x1="588.5106382978723" y1="80" x2="588.5106382978723" y2="350" class="grid-week"/>
<line x1="604.468085106383" y1="80" x2="604.468085106383" y2="350" class="grid-month"/>
<line x1="620.4255319148937" y1="80" x2="620.4255319148937" y2="350" class="grid-week"/>
<line x1="636.3829787234042" y1="80" x2="636.3829787234042" y2="350" class="grid-week"/>
<line x1="652.3404255319149" y1="80" x2="652.3404255319149" y2="350" class="grid-week"/>
<line x1="668.2978723404256" y1="80" x2="668.2978723404256" y2="350" class="grid-month"/>
<line x1="684.2553191489362" y1="80" x2="684.2553191489362" y2="350" class="grid-week"/>
<line x1="700.2127659574469" y1="80" x2="700.2127659574469" y2="350" class="grid-week"/>
<line x1="716.1702127659574" y1="80" x2="716.1702127659574" y2="350" class="grid-week"/>
<line x1="732.1276595744681" y1="80" x2="732.1276595744681" y2="350" class="grid-month"/>
<line x1="748.0851063829788" y1="80" x2="748.0851063829788" y2="350" class="grid-week"/>
<line x1="764.0425531914893" y1="80" x2="764.0425531914893" y2="350" class="grid-week"/>
<line x1="780.0" y1="80" x2="780.0" y2="350" class="grid-week"/>

  </g>

  <!-- Y AXIS LABELS -->
  <g class="y-axis-labels">
    <text x="20" y="84.0" text-anchor="end" class="ct-label">12</text>
<text x="20" y="138.0" text-anchor="end" class="ct-label">9</text>
<text x="20" y="192.0" text-anchor="end" class="ct-label">7</text>
<text x="20" y="246.0" text-anchor="end" class="ct-label">4</text>
<text x="20" y="300.0" text-anchor="end" class="ct-label">2</text>
<text x="20" y="354.0" text-anchor="end" class="ct-label">0</text>

  </g>

  <!--MONTH LABEL-->
  <g>
    <text x="61.91489361702128" y="372" text-anchor="middle" class="ct-label">Jan</text>
<text x="125.74468085106383" y="372" text-anchor="middle" class="ct-label">Feb</text>
<text x="189.5744680851064" y="372" text-anchor="middle" class="ct-label">Mar</text>
<text x="253.40425531914894" y="372" text-anchor="middle" class="ct-label">Apr</text>
<text x="317.2340425531915" y="372" text-anchor="middle" class="ct-label">May</text>
<text x="381.06382978723406" y="372" text-anchor="middle" class="ct-label">Jun</text>
<text x="444.8936170212766" y="372" text-anchor="middle" class="ct-label">Jul</text>
<text x="508.72340425531917" y="372" text-anchor="middle" class="ct-label">Aug</text>
<text x="572.5531914893618" y="372" text-anchor="middle" class="ct-label">Sep</text>
<text x="636.3829787234042" y="372" text-anchor="middle" class="ct-label">Oct</text>
<text x="700.2127659574469" y="372" text-anchor="middle" class="ct-label">Nov</text>
<text x="764.0425531914893" y="372" text-anchor="middle" class="ct-label">Dec</text>

  </g>

  <!--LINE-->
  <path class="ct-line" pathLength="1" d="M30.0,350.0C37.97872340425532,350.0,37.97872340425532,80.0,45.95744680851064,80.0C53.93617021276596,80.0,53.93617021276596,170.0,61.91489361702128,170.0C69.8936170212766,170.0,69.8936170212766,350.0,77.87234042553192,350.0C85.85106382978724,350.0,85.85106382978724,350.0,93.82978723404256,350.0C101.80851063829788,350.0,101.80851063829788,350.0,109.7872340425532,350.0C117.76595744680851,350.0,117.76595744680851,350.0,125.74468085106383,350.0C133.72340425531917,350.0,133.72340425531917,350.0,141.70212765957447,350.0C149.68085106382978,350.0,149.68085106382978,350.0,157.6595744680851,350.0C165.63829787234044,350.0,165.63829787234044,350.0,173.61702127659575,350.0C181.59574468085106,350.0,181.59574468085106,350.0,189.5744680851064,350.0C197.55319148936172,350.0,197.55319148936172,350.0,205.53191489361703,350.0C213.51063829787233,350.0,213.51063829787233,350.0,221.48936170212767,350.0C229.468085106383,350.0,229.468085106383,350.0,237.4468085106383,350.0C245.4255319148936,350.0,245.4255319148936,350.0,253.40425531914894,350.0C261.3829787234042,350.0,261.3829787234042,350.0,269.36170212765956,350.0C277.3404255319149,350.0,277.3404255319149,350.0,285.3191489361702,350.0C293.29787234042556,350.0,293.29787234042556,350.0,301.2765957446809,350.0C309.2553191489362,350.0,309.2553191489362,350.0,317.2340425531915,350.0C325.2127659574468,350.0,325.2127659574468,350.0,333.1914893617021,350.0C341.17021276595744,350.0,341.17021276595744,350.0,349.1489361702128,350.0C357.1276595744681,350.0,357.1276595744681,350.0,365.10638297872345,350.0C373.0851063829788,350.0,373.0851063829788,350.0,381.06382978723406,350.0C389.04255319148933,350.0,389.04255319148933,350.0,397.02127659574467,350.0C405.0,350.0,405.0,350.0,412.97872340425533,350.0C420.95744680851067,350.0,420.95744680851067,350.0,428.936170212766,350.0C436.91489361702133,350.0,436.91489361702133,350.0,444.8936170212766,350.0C452.8723404255319,350.0,452.8723404255319,350.0,460.8510638297872,350.0C468.82978723404256,350.0,468.82978723404256,350.0,476.8085106382979,350.0C484.7872340425532,350.0,484.7872340425532,350.0,492.76595744680856,350.0C500.7446808510639,350.0,500.7446808510639,350.0,508.72340425531917,350.0C516.7021276595744,350.0,516.7021276595744,350.0,524.6808510638298,350.0C532.6595744680851,350.0,532.6595744680851,350.0,540.6382978723404,350.0C548.6170212765958,350.0,548.6170212765958,350.0,556.5957446808511,350.0C564.5744680851064,350.0,564.5744680851064,350.0,572.5531914893618,350.0C580.5319148936171,350.0,580.5319148936171,350.0,588.5106382978723,350.0C596.4893617021277,350.0,596.4893617021277,350.0,604.468085106383,350.0C612.4468085106383,350.0,612.4468085106383,350.0,620.4255319148937,350.0C628.4042553191489,350.0,628.4042553191489,350.0,636.3829787234042,350.0C644.3617021276596,350.0,644.3617021276596,350.0,652.3404255319149,350.0C660.3191489361702,350.0,660.3191489361702,350.0,668.2978723404256,350.0C676.2765957446809,350.0,676.2765957446809,350.0,684.2553191489362,350.0C692.2340425531916,350.0,692.2340425531916,350.0,700.2127659574469,350.0C708.1914893617022,350.0,708.1914893617022,350.0,716.1702127659574,350.0C724.1489361702128,350.0,724.1489361702128,350.0,732.1276595744681,350.0C740.1063829787234,350.0,740.1063829787234,350.0,748.0851063829788,350.0C756.063829787234,350.0,756.063829787234,350.0,764.0425531914893,350.0C772.0212765957447,350.0,772.0212765957447,350.0,780.0,350.0" />

  <!-- WEEK DOTS -->
  <g>
    <line x1="30.0" y1="350.0" x2="30.01" y2="350.0" class="ct-point-week"/>
<line x1="45.95744680851064" y1="80.0" x2="45.96744680851064" y2="80.0" class="ct-point-week"/>
<line x1="61.91489361702128" y1="170.0" x2="61.924893617021276" y2="170.0" class="ct-point-week"/>
<line x1="77.87234042553192" y1="350.0" x2="77.88234042553192" y2="350.0" class="ct-point-week"/>
<line x1="93.82978723404256" y1="350.0" x2="93.83978723404256" y2="350.0" class="ct-point-week"/>
<line x1="109.7872340425532" y1="350.0" x2="109.7972340425532" y2="350.0" class="ct-point-week"/>
<line x1="125.74468085106383" y1="350.0" x2="125.75468085106384" y2="350.0" class="ct-point-week"/>
<line x1="141.70212765957447" y1="350.0" x2="141.71212765957446" y2="350.0" class="ct-point-week"/>
<line x1="157.6595744680851" y1="350.0" x2="157.6695744680851" y2="350.0" class="ct-point-week"/>
<line x1="173.61702127659575" y1="350.0" x2="173.62702127659574" y2="350.0" class="ct-point-week"/>
<line x1="189.5744680851064" y1="350.0" x2="189.58446808510638" y2="350.0" class="ct-point-week"/>
<line x1="205.53191489361703" y1="350.0" x2="205.54191489361702" y2="350.0" class="ct-point-week"/>
<line x1="221.48936170212767" y1="350.0" x2="221.49936170212766" y2="350.0" class="ct-point-week"/>
<line x1="237.4468085106383" y1="350.0" x2="237.4568085106383" y2="350.0" class="ct-point-week"/>
<line x1="253.40425531914894" y1="350.0" x2="253.41425531914894" y2="350.0" class="ct-point-week"/>
<line x1="269.36170212765956" y1="350.0" x2="269.37170212765955" y2="350.0" class="ct-point-week"/>
<line x1="285.3191489361702" y1="350.0" x2="285.3291489361702" y2="350.0" class="ct-point-week"/>
<line x1="301.2765957446809" y1="350.0" x2="301.2865957446809" y2="350.0" class="ct-point-week"/>
<line x1="317.2340425531915" y1="350.0" x2="317.2440425531915" y2="350.0" class="ct-point-week"/>
<line x1="333.1914893617021" y1="350.0" x2="333.2014893617021" y2="350.0" class="ct-point-week"/>
<line x1="349.1489361702128" y1="350.0" x2="349.15893617021277" y2="350.0" class="ct-point-week"/>
<line x1="365.10638297872345" y1="350.0" x2="365.11638297872344" y2="350.0" class="ct-point-week"/>
<line x1="381.06382978723406" y1="350.0" x2="381.07382978723405" y2="350.0" class="ct-point-week"/>
<line x1="397.02127659574467" y1="350.0" x2="397.03127659574466" y2="350.0" class="ct-point-week"/>
<line x1="412.97872340425533" y1="350.0" x2="412.9887234042553" y2="350.0" class="ct-point-week"/>
<line x1="428.936170212766" y1="350.0" x2="428.946170212766" y2="350.0" class="ct-point-week"/>
<line x1="444.8936170212766" y1="350.0" x2="444.9036170212766" y2="350.0" class="ct-point-week"/>
<line x1="460.8510638297872" y1="350.0" x2="460.8610638297872" y2="350.0" class="ct-point-week"/>
<line x1="476.8085106382979" y1="350.0" x2="476.8185106382979" y2="350.0" class="ct-point-week"/>
<line x1="492.76595744680856" y1="350.0" x2="492.77595744680855" y2="350.0" class="ct-point-week"/>
<line x1="508.72340425531917" y1="350.0" x2="508.73340425531916" y2="350.0" class="ct-point-week"/>
<line x1="524.6808510638298" y1="350.0" x2="524.6908510638298" y2="350.0" class="ct-point-week"/>
<line x1="540.6382978723404" y1="350.0" x2="540.6482978723404" y2="350.0" class="ct-point-week"/>
<line x1="556.5957446808511" y1="350.0" x2="556.6057446808511" y2="350.0" class="ct-point-week"/>
<line x1="572.5531914893618" y1="350.0" x2="572.5631914893618" y2="350.0" class="ct-point-week"/>
<line x1="588.5106382978723" y1="350.0" x2="588.5206382978723" y2="350.0" class="ct-point-week"/>
<line x1="604.468085106383" y1="350.0" x2="604.478085106383" y2="350.0" class="ct-point-week"/>
<line x1="620.4255319148937" y1="350.0" x2="620.4355319148937" y2="350.0" class="ct-point-week"/>
<line x1="636.3829787234042" y1="350.0" x2="636.3929787234042" y2="350.0" class="ct-point-week"/>
<line x1="652.3404255319149" y1="350.0" x2="652.3504255319149" y2="350.0" class="ct-point-week"/>
<line x1="668.2978723404256" y1="350.0" x2="668.3078723404255" y2="350.0" class="ct-point-week"/>
<line x1="684.2553191489362" y1="350.0" x2="684.2653191489362" y2="350.0" class="ct-point-week"/>
<line x1="700.2127659574469" y1="350.0" x2="700.2227659574469" y2="350.0" class="ct-point-week"/>
<line x1="716.1702127659574" y1="350.0" x2="716.1802127659574" y2="350.0" class="ct-point-week"/>
<line x1="732.1276595744681" y1="350.0" x2="732.1376595744681" y2="350.0" class="ct-point-week"/>
<line x1="748.0851063829788" y1="350.0" x2="748.0951063829788" y2="350.0" class="ct-point-week"/>
<line x1="764.0425531914893" y1="350.0" x2="764.0525531914893" y2="350.0" class="ct-point-week"/>
<line x1="780.0" y1="350.0" x2="780.01" y2="350.0" class="ct-point-week"/>

  </g>
  <!-- MAIN DOTS -->
  <g>
    <line x1="45.95744680851064" y1="80.0" x2="45.96744680851064" y2="80.0" class="ct-point-main"/>
<line x1="61.91489361702128" y1="170.0" x2="61.924893617021276" y2="170.0" class="ct-point-main"/>

  </g>
</svg>